<?xml version="1.0" standalone="no"?>
<!DOCTYPE svg PUBLIC "-//W3C//DTD SVG 20010904//EN"
 "http://www.w3.org/TR/2001/REC-SVG-20010904/DTD/svg10.dtd">
<svg version="1.0" xmlns="http://www.w3.org/2000/svg"
 width="512.000000pt" height="512.000000pt" viewBox="0 0 512.000000 512.000000"
 preserveAspectRatio="xMidYMid meet">

<g transform="translate(0.000000,512.000000) scale(0.100000,-0.100000)"
fill="#000000" stroke="none">
<path d="M2504 4357 c-11 -7 -99 -95 -194 -197 -96 -102 -259 -274 -362 -382
-103 -109 -192 -207 -198 -217 -14 -28 8 -47 64 -55 25 -4 48 -11 51 -16 3 -5
-4 -23 -17 -40 -42 -58 -18 -159 49 -205 19 -12 44 -42 55 -65 28 -56 110
-139 173 -175 28 -16 78 -52 113 -81 65 -53 138 -97 182 -109 14 -3 -6 10 -45
30 -67 34 -172 114 -130 100 120 -43 161 -49 335 -49 149 0 185 3 245 21 38
12 71 20 73 18 6 -6 -65 -56 -130 -91 -35 -19 -52 -32 -38 -28 37 10 102 50
152 93 23 21 72 53 108 72 123 65 226 185 246 286 4 18 17 39 31 48 29 19 62
88 63 128 0 35 -15 67 -44 89 -30 25 -13 46 59 72 101 36 99 39 -186 271 -538
437 -595 482 -614 488 -11 3 -29 1 -41 -6z m85 -65 c89 -74 418 -339 599 -481
100 -80 182 -150 182 -156 0 -20 -351 -107 -508 -126 -48 -5 -118 -14 -157
-19 -38 -5 -112 -9 -163 -9 -89 -1 -93 0 -104 24 -17 39 -43 40 -97 6 -57 -37
-84 -38 -326 -16 -191 17 -235 24 -235 35 0 5 62 71 138 148 75 77 241 250
367 385 127 135 236 246 244 247 8 0 35 -17 60 -38z m667 -739 c-10 -10 -19 5
-10 18 6 11 8 11 12 0 2 -7 1 -15 -2 -18z m-46 -65 c0 -69 -3 -79 -60 -193
-66 -130 -150 -257 -190 -287 -14 -10 -58 -29 -97 -43 -203 -68 -467 -55 -654
34 -58 27 -73 41 -122 108 -30 43 -74 109 -96 148 -39 66 -41 74 -41 148 l0
79 113 -6 c184 -11 182 -9 90 -67 -114 -72 -112 -69 -77 -126 17 -28 38 -49
49 -50 11 -2 97 39 190 90 139 76 170 96 169 114 0 20 6 21 105 27 58 4 126
10 150 13 42 5 43 5 31 -16 -25 -47 -12 -59 129 -122 73 -32 138 -56 143 -53
6 4 19 27 30 52 24 54 29 48 -92 115 -74 41 -75 41 -45 49 50 12 249 55 263
57 8 1 12 -19 12 -71z m75 -2 c21 -31 11 -88 -21 -124 l-23 -27 -1 65 c0 107
14 133 45 86z m-1365 -57 c0 -5 -4 -9 -10 -9 -5 0 -10 7 -10 16 0 8 5 12 10 9
6 -3 10 -10 10 -16z m-1 -106 c1 -51 -12 -55 -39 -10 -22 36 -26 97 -8 115 10
10 16 5 30 -25 9 -21 17 -57 17 -80z m1288 -8 c-10 -100 -63 -190 -151 -253
-25 -18 -46 -31 -46 -28 0 3 22 38 49 78 27 40 70 117 97 171 27 53 50 97 53
97 2 0 1 -29 -2 -65z m-1171 -152 c34 -51 58 -93 54 -93 -5 0 -27 21 -51 48
-40 45 -70 100 -83 152 -6 23 -5 23 6 6 7 -11 41 -61 74 -113z"/>
<path d="M2261 3953 c-26 -31 -32 -34 -46 -23 -13 11 -19 11 -32 -3 -14 -13
-14 -19 -3 -32 11 -14 8 -21 -25 -55 -24 -25 -36 -44 -32 -54 9 -24 28 -19 64
16 31 30 34 31 50 15 16 -16 15 -20 -30 -65 -26 -26 -47 -55 -47 -64 0 -35 24
-28 74 21 l52 51 22 -30 c42 -57 78 -31 39 28 l-24 37 25 33 c23 30 24 34 9
49 -14 14 -18 13 -42 -13 -26 -28 -27 -28 -40 -10 -13 17 -10 24 24 64 22 25
37 51 34 59 -9 24 -41 14 -72 -24z"/>
<path d="M2392 3223 c2 -30 7 -39 25 -41 17 -3 24 3 29 22 9 37 -2 56 -31 56
-24 0 -26 -3 -23 -37z"/>
<path d="M2754 3245 c-4 -8 -3 -27 0 -41 5 -19 12 -25 29 -22 18 2 23 11 25
41 3 34 1 37 -23 37 -14 0 -28 -7 -31 -15z"/>
<path d="M2863 3105 c-39 -41 -40 -45 -9 -45 27 0 56 33 56 62 0 25 -10 22
-47 -17z"/>
<path d="M2465 2800 c11 -5 32 -9 48 -9 21 -1 27 -6 27 -22 0 -12 14 -34 30
-49 30 -28 38 -28 20 0 -5 9 -5 19 1 26 5 7 8 18 7 25 -2 8 14 15 45 20 27 4
52 10 55 13 3 4 -17 3 -44 -1 -61 -9 -95 -10 -159 -1 -31 4 -42 3 -30 -2z
m120 -40 c0 -8 -8 -16 -17 -18 -13 -2 -18 3 -18 18 0 15 5 20 18 18 9 -2 17
-10 17 -18z"/>
<path d="M2582 2655 c-7 -14 -12 -34 -11 -43 0 -9 7 1 15 22 16 45 13 59 -4
21z"/>
<path d="M607 2294 c-4 -4 -7 -146 -7 -316 l0 -308 160 0 160 0 0 60 0 60 -95
0 c-102 0 -97 -3 -97 55 0 80 -8 74 95 77 l92 3 0 60 0 60 -85 2 c-47 1 -88 2
-92 3 -5 0 -8 27 -8 60 l0 59 93 3 92 3 0 60 0 60 -151 3 c-82 1 -153 -1 -157
-4z"/>
<path d="M1714 2286 c-3 -7 -4 -35 -2 -62 l3 -49 83 -3 82 -3 0 -249 0 -250
60 0 60 0 2 248 3 247 83 3 83 3 -3 62 -3 62 -223 3 c-183 2 -223 0 -228 -12z"/>
<path d="M2296 2292 c-8 -13 256 -614 266 -604 4 4 34 68 65 141 32 73 63 133
68 133 6 0 36 -60 68 -133 32 -74 62 -137 66 -142 4 -4 67 129 139 295 75 171
129 305 124 310 -5 5 -35 8 -66 6 l-57 -3 -63 -144 c-35 -80 -67 -146 -73
-148 -5 -2 -35 56 -66 129 -32 73 -61 139 -66 146 -5 9 -29 -36 -71 -133 -35
-80 -68 -144 -74 -142 -5 2 -37 68 -71 148 l-62 144 -61 3 c-33 2 -63 -1 -66
-6z"/>
<path d="M3225 2288 c-3 -7 -4 -148 -3 -313 l3 -300 158 -3 157 -3 0 60 0 60
-92 3 -93 3 -3 63 -3 62 96 0 95 0 0 59 c0 70 -1 71 -111 71 l-79 0 0 60 0 60
95 0 96 0 -3 63 -3 62 -153 3 c-117 2 -154 0 -157 -10z"/>
<path d="M3787 2294 c-4 -4 -7 -146 -7 -316 l0 -308 145 0 145 0 0 60 0 59
-82 3 -83 3 -5 250 -5 250 -50 3 c-28 2 -54 0 -58 -4z"/>
<path d="M4285 2278 c-3 -13 -4 -153 -3 -313 l3 -290 148 -3 147 -3 0 60 0 60
-82 3 -83 3 -5 250 -5 250 -57 3 c-53 3 -58 1 -63 -20z"/>
<path d="M1310 2169 c-29 -68 -88 -204 -131 -303 -44 -98 -79 -182 -79 -187 0
-5 29 -9 64 -9 l64 0 19 38 18 37 101 3 101 3 18 -41 18 -40 64 0 c34 0 63 4
63 9 0 9 -230 544 -253 588 -13 24 -15 21 -67 -98z m94 -276 c7 -22 4 -23 -39
-23 -34 0 -46 4 -42 13 3 6 13 32 23 56 l17 44 17 -34 c10 -19 21 -44 24 -56z"/>
<path d="M1175 1364 c4 -11 16 -43 27 -71 29 -74 47 -70 81 14 14 37 24 69 22
71 -12 12 -35 -12 -46 -47 -7 -23 -15 -41 -18 -41 -4 0 -13 19 -21 42 -9 27
-22 44 -34 46 -15 3 -17 0 -11 -14z"/>
<path d="M1390 1310 c0 -56 3 -70 15 -70 12 0 15 14 15 70 0 56 -3 70 -15 70
-12 0 -15 -14 -15 -70z"/>
<path d="M1510 1311 l0 -71 50 0 c28 0 50 5 50 10 0 6 -16 10 -35 10 -24 0
-35 5 -35 15 0 10 10 15 30 15 20 0 30 5 30 15 0 10 -10 15 -30 15 -20 0 -30
5 -30 15 0 11 11 15 36 15 54 0 37 24 -19 28 l-47 3 0 -70z"/>
<path d="M1680 1365 c0 -8 9 -15 20 -15 18 0 20 -7 20 -55 0 -42 3 -55 15 -55
12 0 15 13 15 55 0 48 2 55 20 55 11 0 20 7 20 15 0 12 -13 15 -55 15 -42 0
-55 -3 -55 -15z"/>
<path d="M1870 1310 c0 -56 3 -70 15 -70 11 0 15 11 15 38 l1 37 32 -38 c47
-55 57 -49 57 33 0 56 -3 70 -15 70 -11 0 -15 -11 -15 -42 l0 -43 -36 43 c-20
23 -40 42 -45 42 -5 0 -9 -31 -9 -70z"/>
<path d="M2097 1313 c-28 -71 -28 -84 3 -65 25 15 57 16 62 1 2 -6 11 -10 19
-8 14 4 13 13 -9 72 -14 37 -30 67 -37 67 -6 0 -24 -30 -38 -67z m53 -15 c0
-5 -7 -8 -15 -8 -17 0 -18 2 -9 25 5 13 8 14 15 3 5 -7 9 -16 9 -20z"/>
<path d="M2280 1310 c0 -56 3 -70 15 -70 10 0 15 10 15 33 l0 32 20 -25 19
-25 25 24 26 24 0 -31 c0 -22 5 -32 15 -32 12 0 15 14 15 70 0 40 -4 70 -10
70 -5 0 -23 -18 -39 -41 l-30 -40 -27 40 c-15 23 -31 41 -35 41 -5 0 -9 -31
-9 -70z"/>
<path d="M2520 1311 l0 -71 50 0 c28 0 50 5 50 10 0 6 -16 10 -35 10 -24 0
-35 5 -35 15 0 10 10 15 30 15 20 0 30 5 30 15 0 10 -10 15 -30 15 -20 0 -30
5 -30 15 0 11 11 15 36 15 54 0 37 24 -19 28 l-47 3 0 -70z"/>
<path d="M2718 1369 c-29 -17 -21 -48 18 -71 24 -14 32 -24 25 -31 -7 -7 -18
-7 -35 1 -19 8 -25 8 -29 -3 -4 -8 6 -18 24 -25 24 -10 33 -10 54 4 36 24 32
53 -10 73 -43 21 -46 38 -4 29 25 -5 30 -3 27 12 -4 20 -45 27 -70 11z"/>
<path d="M2880 1310 l0 -70 50 0 c28 0 50 5 50 10 0 6 -16 10 -35 10 -24 0
-35 5 -35 15 0 10 10 15 30 15 20 0 30 5 30 15 0 10 -10 15 -30 15 -20 0 -30
5 -30 15 0 10 11 15 35 15 24 0 35 5 35 15 0 11 -12 15 -50 15 l-50 0 0 -70z"/>
<path d="M3170 1310 c0 -56 3 -70 15 -70 9 0 15 9 15 25 0 21 5 25 30 25 20 0
30 5 30 15 0 10 -10 15 -30 15 -20 0 -30 5 -30 15 0 10 11 15 35 15 24 0 35 5
35 15 0 11 -12 15 -50 15 l-50 0 0 -70z"/>
<path d="M3366 1359 c-63 -50 -1 -150 75 -119 26 11 49 46 49 76 0 23 -46 64
-73 64 -13 0 -36 -9 -51 -21z m78 -28 c19 -21 13 -47 -16 -62 -16 -9 -25 -7
-41 10 -18 17 -19 24 -9 46 14 30 42 33 66 6z"/>
<path d="M3585 1355 c-49 -48 -19 -119 50 -119 43 0 75 30 75 71 0 32 -42 73
-75 73 -14 0 -37 -11 -50 -25z m79 -21 c21 -21 20 -37 -4 -59 -18 -17 -21 -17
-45 -1 -14 9 -25 23 -25 31 0 17 27 45 45 45 7 0 21 -7 29 -16z"/>
<path d="M3790 1310 l0 -70 49 0 c40 0 53 4 65 22 38 54 -2 118 -74 118 l-40
0 0 -70z m84 24 c19 -18 19 -20 6 -45 -6 -11 -21 -19 -35 -19 -22 0 -25 4 -25
40 0 33 3 40 19 40 11 0 27 -7 35 -16z"/>
</g>
</svg>
